<mxfile host="app.diagrams.net" modified="2022-11-17T04:08:31.068Z" agent="5.0 (Windows NT 10.0; Win64; x64) AppleWebKit/537.36 (KHTML, like Gecko) Chrome/107.0.0.0 Safari/537.36" etag="yyHC-EljhIUfb7rLEiDH" version="20.5.3" type="github">
  <diagram id="qhpH-VFlG7Zdw0DHhHbN" name="第 1 页">
    <mxGraphModel dx="1068" dy="941" grid="1" gridSize="10" guides="1" tooltips="1" connect="1" arrows="1" fold="1" page="1" pageScale="1" pageWidth="827" pageHeight="1169" math="0" shadow="0">
      <root>
        <mxCell id="0" />
        <mxCell id="1" parent="0" />
        <mxCell id="XnsMUMIPMgJ9rkLFDH2r-6" style="edgeStyle=orthogonalEdgeStyle;rounded=0;orthogonalLoop=1;jettySize=auto;html=1;fontFamily=Times New Roman;" edge="1" parent="1" source="XnsMUMIPMgJ9rkLFDH2r-2" target="XnsMUMIPMgJ9rkLFDH2r-5">
          <mxGeometry relative="1" as="geometry" />
        </mxCell>
        <mxCell id="XnsMUMIPMgJ9rkLFDH2r-2" value="Alice" style="text;html=1;strokeColor=none;fillColor=none;align=center;verticalAlign=middle;whiteSpace=wrap;rounded=0;fontFamily=Times New Roman;" vertex="1" parent="1">
          <mxGeometry x="115" y="180" width="60" height="20" as="geometry" />
        </mxCell>
        <mxCell id="XnsMUMIPMgJ9rkLFDH2r-16" style="edgeStyle=orthogonalEdgeStyle;rounded=0;orthogonalLoop=1;jettySize=auto;html=1;fontFamily=Times New Roman;fontSize=13;" edge="1" parent="1" source="XnsMUMIPMgJ9rkLFDH2r-3" target="XnsMUMIPMgJ9rkLFDH2r-15">
          <mxGeometry relative="1" as="geometry" />
        </mxCell>
        <mxCell id="XnsMUMIPMgJ9rkLFDH2r-3" value="Bob" style="text;html=1;strokeColor=none;fillColor=none;align=center;verticalAlign=middle;whiteSpace=wrap;rounded=0;fontFamily=Times New Roman;" vertex="1" parent="1">
          <mxGeometry x="365" y="182.5" width="60" height="15" as="geometry" />
        </mxCell>
        <mxCell id="XnsMUMIPMgJ9rkLFDH2r-4" value="Key Agreement Protocol" style="text;html=1;strokeColor=none;fillColor=none;align=center;verticalAlign=middle;whiteSpace=wrap;rounded=0;fontFamily=Times New Roman;" vertex="1" parent="1">
          <mxGeometry x="164" y="80" width="220" height="30" as="geometry" />
        </mxCell>
        <mxCell id="XnsMUMIPMgJ9rkLFDH2r-7" style="edgeStyle=orthogonalEdgeStyle;rounded=0;orthogonalLoop=1;jettySize=auto;html=1;fontFamily=Times New Roman;" edge="1" parent="1" source="XnsMUMIPMgJ9rkLFDH2r-5" target="XnsMUMIPMgJ9rkLFDH2r-11">
          <mxGeometry relative="1" as="geometry">
            <mxPoint x="145" y="310" as="targetPoint" />
          </mxGeometry>
        </mxCell>
        <mxCell id="XnsMUMIPMgJ9rkLFDH2r-5" value="Sensors Attach to Body" style="text;whiteSpace=wrap;html=1;align=center;fontFamily=Times New Roman;" vertex="1" parent="1">
          <mxGeometry x="70" y="240" width="150" height="30" as="geometry" />
        </mxCell>
        <mxCell id="XnsMUMIPMgJ9rkLFDH2r-9" value="&lt;span style=&quot;color: rgb(51, 51, 51); font-style: normal; font-variant-ligatures: normal; font-variant-caps: normal; font-weight: 400; letter-spacing: normal; orphans: 2; text-indent: 0px; text-transform: none; widows: 2; word-spacing: 0px; -webkit-text-stroke-width: 0px; background-color: rgb(255, 255, 255); text-decoration-thickness: initial; text-decoration-style: initial; text-decoration-color: initial; float: none; display: inline !important;&quot;&gt;&lt;font style=&quot;font-size: 13px;&quot;&gt;Body Area Networks (BANs)&lt;/font&gt;&lt;/span&gt;" style="text;whiteSpace=wrap;html=1;fontFamily=Times New Roman;align=center;" vertex="1" parent="1">
          <mxGeometry x="65" y="140" width="160" height="30" as="geometry" />
        </mxCell>
        <mxCell id="XnsMUMIPMgJ9rkLFDH2r-10" value="Get signal morphology from a cardiac cycle" style="text;whiteSpace=wrap;html=1;fontSize=13;fontFamily=Times New Roman;align=center;" vertex="1" parent="1">
          <mxGeometry x="72.5" y="390" width="145" height="30" as="geometry" />
        </mxCell>
        <mxCell id="XnsMUMIPMgJ9rkLFDH2r-13" style="edgeStyle=orthogonalEdgeStyle;rounded=0;orthogonalLoop=1;jettySize=auto;html=1;entryX=0.5;entryY=0;entryDx=0;entryDy=0;fontFamily=Times New Roman;fontSize=13;" edge="1" parent="1" source="XnsMUMIPMgJ9rkLFDH2r-11" target="XnsMUMIPMgJ9rkLFDH2r-10">
          <mxGeometry relative="1" as="geometry" />
        </mxCell>
        <mxCell id="XnsMUMIPMgJ9rkLFDH2r-11" value="&lt;span style=&quot;color: rgb(0, 0, 0); font-family: &amp;quot;Times New Roman&amp;quot;; font-size: 12px; font-style: normal; font-variant-ligatures: normal; font-variant-caps: normal; font-weight: 400; letter-spacing: normal; orphans: 2; text-indent: 0px; text-transform: none; widows: 2; word-spacing: 0px; -webkit-text-stroke-width: 0px; background-color: rgb(248, 249, 250); text-decoration-thickness: initial; text-decoration-style: initial; text-decoration-color: initial; float: none; display: inline !important;&quot;&gt;Acquire PPG signal&lt;/span&gt;" style="text;whiteSpace=wrap;html=1;fontSize=13;fontFamily=Times New Roman;align=center;" vertex="1" parent="1">
          <mxGeometry x="80" y="320" width="130" height="30" as="geometry" />
        </mxCell>
        <mxCell id="XnsMUMIPMgJ9rkLFDH2r-14" value="The PPG signals acquired by different parts of the body are similar" style="text;whiteSpace=wrap;html=1;fontSize=13;fontFamily=Times New Roman;" vertex="1" parent="1">
          <mxGeometry x="30" y="10" width="380" height="40" as="geometry" />
        </mxCell>
        <mxCell id="XnsMUMIPMgJ9rkLFDH2r-18" style="edgeStyle=orthogonalEdgeStyle;rounded=0;orthogonalLoop=1;jettySize=auto;html=1;fontFamily=Times New Roman;fontSize=13;" edge="1" parent="1" source="XnsMUMIPMgJ9rkLFDH2r-15" target="XnsMUMIPMgJ9rkLFDH2r-17">
          <mxGeometry relative="1" as="geometry" />
        </mxCell>
        <mxCell id="XnsMUMIPMgJ9rkLFDH2r-15" value="RGB/NIR Camera" style="text;whiteSpace=wrap;html=1;align=center;fontFamily=Times New Roman;" vertex="1" parent="1">
          <mxGeometry x="320" y="240" width="150" height="30" as="geometry" />
        </mxCell>
        <mxCell id="XnsMUMIPMgJ9rkLFDH2r-20" style="edgeStyle=orthogonalEdgeStyle;rounded=0;orthogonalLoop=1;jettySize=auto;html=1;fontFamily=Times New Roman;fontSize=13;" edge="1" parent="1" source="XnsMUMIPMgJ9rkLFDH2r-17" target="XnsMUMIPMgJ9rkLFDH2r-19">
          <mxGeometry relative="1" as="geometry" />
        </mxCell>
        <mxCell id="XnsMUMIPMgJ9rkLFDH2r-17" value="&lt;span style=&quot;color: rgb(0, 0, 0); font-family: &amp;quot;Times New Roman&amp;quot;; font-size: 12px; font-style: normal; font-variant-ligatures: normal; font-variant-caps: normal; font-weight: 400; letter-spacing: normal; orphans: 2; text-indent: 0px; text-transform: none; widows: 2; word-spacing: 0px; -webkit-text-stroke-width: 0px; background-color: rgb(248, 249, 250); text-decoration-thickness: initial; text-decoration-style: initial; text-decoration-color: initial; float: none; display: inline !important;&quot;&gt;Acquire rPPG signal&lt;/span&gt;" style="text;whiteSpace=wrap;html=1;fontSize=13;fontFamily=Times New Roman;align=center;" vertex="1" parent="1">
          <mxGeometry x="330" y="320" width="130" height="30" as="geometry" />
        </mxCell>
        <mxCell id="XnsMUMIPMgJ9rkLFDH2r-19" value="Get signal morphology from a cardiac cycle" style="text;whiteSpace=wrap;html=1;fontSize=13;fontFamily=Times New Roman;align=center;" vertex="1" parent="1">
          <mxGeometry x="327.5" y="390" width="135" height="30" as="geometry" />
        </mxCell>
        <mxCell id="XnsMUMIPMgJ9rkLFDH2r-21" value="&lt;font style=&quot;font-size: 12px;&quot;&gt;Extended Network&lt;/font&gt;" style="text;whiteSpace=wrap;html=1;fontSize=13;fontFamily=Times New Roman;align=center;" vertex="1" parent="1">
          <mxGeometry x="332.5" y="140" width="130" height="25" as="geometry" />
        </mxCell>
      </root>
    </mxGraphModel>
  </diagram>
</mxfile>
